
<svg data-name="Layer 1" id="Layer_1" viewBox="0 0 128 128" xmlns="http://www.w3.org/2000/svg" xmlns:xlink="http://www.w3.org/1999/xlink"><defs><style>.cls-1,.cls-13{fill:none;}.cls-2{clip-path:url(#clip-path);}.cls-3{fill:url(#radial-gradient);}.cls-4{clip-path:url(#clip-path-2);}.cls-5{fill:url(#radial-gradient-2);}.cls-6{clip-path:url(#clip-path-3);}.cls-7{fill:url(#radial-gradient-3);}.cls-8{clip-path:url(#clip-path-4);}.cls-9{clip-path:url(#clip-path-5);}.cls-10{clip-path:url(#clip-path-6);}.cls-11{fill:url(#radial-gradient-6);}.cls-12{fill:#fff;}.cls-13{stroke:#fff;stroke-miterlimit:10;stroke-width:8px;}</style><clipPath id="clip-path"><circle class="cls-1" cx="64" cy="64" r="64"/></clipPath><radialGradient cx="27.5" cy="121.5" gradientUnits="userSpaceOnUse" id="radial-gradient" r="137.5"><stop offset="0" stop-color="#ffd676"/><stop offset="0.25" stop-color="#f2a454"/><stop offset="0.38" stop-color="#f05c3c"/><stop offset="0.7" stop-color="#c22f86"/><stop offset="0.96" stop-color="#6666ad"/><stop offset="0.99" stop-color="#5c6cb2"/></radialGradient><clipPath id="clip-path-2"><path class="cls-1" d="M104-163H24A24.07,24.07,0,0,0,0-139v80A24.07,24.07,0,0,0,24-35h80a24.07,24.07,0,0,0,24-24v-80A24.07,24.07,0,0,0,104-163ZM120-59a16,16,0,0,1-16,16H24A16,16,0,0,1,8-59v-80a16,16,0,0,1,16-16h80a16,16,0,0,1,16,16Z"/></clipPath><radialGradient cx="27.5" cy="-41.5" id="radial-gradient-2" r="148.5" xlink:href="#radial-gradient"/><clipPath id="clip-path-3"><circle class="cls-1" cx="82" cy="209" r="5"/></clipPath><radialGradient cx="13.87" cy="303.38" id="radial-gradient-3" r="185.63" xlink:href="#radial-gradient"/><clipPath id="clip-path-4"><path class="cls-1" d="M64-115A16,16,0,0,0,48-99,16,16,0,0,0,64-83,16,16,0,0,0,80-99,16,16,0,0,0,64-115Zm0,24a8,8,0,0,1-8-8,8,8,0,0,1,8-8,8,8,0,0,1,8,8A8,8,0,0,1,64-91Z"/></clipPath><clipPath id="clip-path-5"><path class="cls-1" d="M84-63H44A16,16,0,0,1,28-79v-40a16,16,0,0,1,16-16H84a16,16,0,0,1,16,16v40A16,16,0,0,1,84-63ZM44-127a8,8,0,0,0-8,8v40a8,8,0,0,0,8,8H84a8,8,0,0,0,8-8v-40a8,8,0,0,0-8-8Z"/></clipPath><clipPath id="clip-path-6"><circle class="cls-1" cx="82" cy="-117" r="5"/></clipPath><radialGradient cx="13.87" cy="-22.62" id="radial-gradient-6" r="185.63" xlink:href="#radial-gradient"/></defs><title/><g class="cls-2"><circle class="cls-3" cx="27.5" cy="121.5" r="137.5"/></g><g class="cls-4"><circle class="cls-5" cx="27.5" cy="-41.5" r="148.5"/></g><g class="cls-6"><circle class="cls-7" cx="13.87" cy="303.38" r="185.63"/></g><g class="cls-8"><circle class="cls-5" cx="27.5" cy="-41.5" r="148.5"/></g><g class="cls-9"><circle class="cls-5" cx="27.5" cy="-41.5" r="148.5"/></g><g class="cls-10"><circle class="cls-11" cx="13.87" cy="-22.62" r="185.63"/></g><circle class="cls-12" cx="82" cy="46" r="5"/><path class="cls-12" d="M64,48A16,16,0,1,0,80,64,16,16,0,0,0,64,48Zm0,24a8,8,0,1,1,8-8A8,8,0,0,1,64,72Z"/><rect class="cls-13" height="64" rx="12" ry="12" width="64" x="32" y="32"/></svg>