<svg xmlns="http://www.w3.org/2000/svg">
    <symbol  id="trust" xmlns="http://www.w3.org/2000/svg" xmlns:xlink="http://www.w3.org/1999/xlink" x="0px" y="0px"
         viewBox="0 0 480.006 480.006" style="enable-background:new 0 0 480.006 480.006;" xml:space="preserve">
<g>

		<path d="M478.66,395.595l-58.464-87.728l10.248-3.2c4.218-1.317,6.569-5.803,5.252-10.021c-0.054-0.174-0.114-0.346-0.18-0.515
			l-17.976-46.232l36.608-34.04c3.234-3.01,3.416-8.072,0.406-11.306c-0.13-0.14-0.266-0.275-0.406-0.406l-36.608-34.032
			l17.984-46.232c1.601-4.118-0.439-8.754-4.557-10.356c-0.17-0.066-0.342-0.126-0.515-0.18l-48.128-15.008l-4.208-49.36
			c-0.186-2.197-1.264-4.221-2.984-5.6c-1.711-1.375-3.915-1.981-6.088-1.672l-50.088,6.936L293.309,3.891
			c-2.271-3.79-7.185-5.021-10.974-2.75c-0.098,0.059-0.194,0.119-0.29,0.182l-42.04,27.672L197.973,1.323
			c-3.689-2.431-8.651-1.411-11.082,2.278c-0.063,0.095-0.123,0.192-0.182,0.29l-25.648,42.768l-50.08-6.936
			c-4.376-0.608-8.417,2.447-9.025,6.823c-0.02,0.141-0.035,0.283-0.047,0.425l-4.216,49.36l-48.088,15.008
			c-4.218,1.317-6.569,5.803-5.252,10.021c0.054,0.174,0.114,0.346,0.18,0.515l17.976,46.232l-36.648,34.04
			c-3.234,3.01-3.416,8.072-0.406,11.306c0.13,0.14,0.266,0.275,0.406,0.406l36.608,34.032l-17.984,46.232
			c-1.601,4.118,0.439,8.754,4.557,10.356c0.17,0.066,0.342,0.126,0.515,0.18l10.616,3.304L1.189,403.811
			c-2.316,3.763-1.144,8.69,2.619,11.006c1.682,1.035,3.687,1.412,5.629,1.058L89.7,401.283l14.464,72.32
			c0.634,3.172,3.115,5.65,6.288,6.28c0.512,0.091,1.032,0.131,1.552,0.12c2.674,0,5.172-1.335,6.656-3.56l56.128-84.192
			l11.912,19.864c1.122,1.872,2.96,3.204,5.088,3.688c0.596,0.137,1.205,0.204,1.816,0.2c1.564,0,3.094-0.459,4.4-1.32l42-27.672
			l42.032,27.672c3.689,2.431,8.651,1.411,11.082-2.278c0.063-0.095,0.123-0.192,0.182-0.29l11.92-19.872l56.128,84.2
			c1.484,2.225,3.982,3.56,6.656,3.56c0.521,0.001,1.041-0.05,1.552-0.152c3.173-0.63,5.654-3.108,6.288-6.28l14.56-72.952
			l80.88,7.384c4.4,0.398,8.29-2.846,8.689-7.246C480.138,398.937,479.675,397.115,478.66,395.595z M116.085,451.491l-12.24-61.088
			c-0.855-4.278-4.979-7.082-9.272-6.304l-70.36,12.8l51.72-84.016l21.752,6.784l4.208,49.36c0.186,2.197,1.264,4.221,2.984,5.6
			c1.714,1.368,3.915,1.973,6.088,1.672l50.088-6.936l4.632,7.728L116.085,451.491z M307.949,356.619l-24.08,40.144l-39.464-26.016
			c-2.67-1.758-6.13-1.758-8.8,0l-39.472,25.984l-24.08-40.152c-1.444-2.41-4.047-3.886-6.856-3.888
			c-0.37-0.001-0.739,0.026-1.104,0.08l-46.968,6.496l-3.952-46.312c-0.277-3.243-2.491-5.995-5.6-6.96l-45.064-14.064l16.8-43.296
			c1.189-3.056,0.393-6.527-2.008-8.76l-34.24-31.872l34.28-31.872c2.401-2.233,3.197-5.704,2.008-8.76l-16.8-43.312l45.08-14.056
			c3.109-0.965,5.323-3.717,5.6-6.96l3.952-46.312l46.968,6.504c3.192,0.456,6.346-1.048,8-3.816l24.08-40.144l39.376,25.984
			c2.67,1.758,6.13,1.758,8.8,0l39.472-25.984l24.08,40.152c1.66,2.739,4.786,4.234,7.96,3.808l46.968-6.496l3.952,46.312
			c0.277,3.243,2.491,5.995,5.6,6.96l45.08,14.064l-16.848,43.296c-1.189,3.056-0.393,6.527,2.008,8.76l34.272,31.872l-34.28,31.872
			c-2.401,2.233-3.197,5.704-2.008,8.76l16.8,43.312l-45.04,14.056c-3.109,0.965-5.323,3.717-5.6,6.96l-3.952,46.312l-46.96-6.472
			C312.732,352.378,309.607,353.877,307.949,356.619z M384.725,384.003c-4.054-0.314-7.714,2.423-8.56,6.4l-12.216,61.064
			l-49.6-74.4l4.624-7.712l50.08,6.936c4.376,0.608,8.417-2.447,9.025-6.823c0.02-0.141,0.035-0.283,0.047-0.425l4.216-49.36
			l21.96-6.848l51.768,77.688L384.725,384.003z"/>



    <path d="M360.004,168.003c0-13.255-10.745-24-24-24h-56v-32c0.022-22.069-17.851-39.978-39.92-40c-0.027,0-0.053,0-0.08,0
			c-4.418,0-8,3.582-8,8v38.112l-14.4,28.736l-25.744,20.6c-0.26-4.159-3.689-7.41-7.856-7.448h-56c-4.418,0-8,3.582-8,8v120
			c0,4.418,3.582,8,8,8h56c4.418,0,8-3.582,8-8h120c13.228-0.066,23.934-10.772,24-24c-0.027-4.126-1.13-8.174-3.2-11.744
			c1.476-0.921,2.84-2.011,4.064-3.248c7.757-7.544,9.38-19.401,3.936-28.752c1.476-0.921,2.84-2.011,4.064-3.248
			c7.757-7.544,9.38-19.401,3.936-28.752c1.476-0.921,2.84-2.011,4.064-3.248C357.46,180.547,360.037,174.406,360.004,168.003z
			 M176.005,280.003h-40v-104h40V280.003z M341.556,173.699c-1.459,1.493-3.465,2.325-5.552,2.304h-32v16h24c4.418,0,8,3.582,8,8
			c0.007,2.156-0.879,4.218-2.448,5.696c-1.459,1.493-3.465,2.325-5.552,2.304h-32v16h24c4.418,0,8,3.582,8,8
			c0.007,2.156-0.879,4.218-2.448,5.696c-1.459,1.493-3.465,2.325-5.552,2.304h-32v16h24c4.418,0,8,3.582,8,8
			c0.007,2.156-0.879,4.218-2.448,5.696c-1.459,1.493-3.465,2.325-5.552,2.304h-120v-84.16l37-29.592
			c0.904-0.725,1.641-1.636,2.16-2.672l16-32c0.554-1.111,0.841-2.335,0.84-3.576V89.371c9.606,3.371,16.026,12.452,16,22.632v40
			c0,4.418,3.582,8,8,8h64c4.418,0,8,3.582,8,8C344.012,170.158,343.125,172.22,341.556,173.699z"/>

</g>

</symbol>
    <symbol  id="toothClean" xmlns="http://www.w3.org/2000/svg" xmlns:xlink="http://www.w3.org/1999/xlink" x="0px" y="0px"
         viewBox="0 0 496 496" style="enable-background:new 0 0 496 496;" xml:space="preserve">
<g>
	<g>
		<path d="M112,158.68V156H96v2.68c0,4.584,0.12,9.168,0.352,13.728l15.984-0.816C112.12,167.296,112,163,112,158.68z"/>
	</g>
</g>
        <g>
	<g>
		<path d="M113.608,187.088l-15.896,1.816c4.576,40.296,18.624,79.68,40.616,113.88l13.456-8.656
			C131.112,261.976,117.92,224.96,113.608,187.088z"/>
	</g>
</g>
        <g>
	<g>
		<path d="M294.888,77.696C281.032,87.056,264.816,92,248,92c-16.816,0-33.024-4.944-46.88-14.296l-8.952,13.264
			C208.68,102.112,227.984,108,248,108s39.32-5.888,55.84-17.04L294.888,77.696z"/>
	</g>
</g>
        <g>
	<g>
		<path d="M72,308H56c0,30.872-25.128,56-56,56v16c30.872,0,56,25.128,56,56h16c0-30.872,25.128-56,56-56v-16
			C97.128,364,72,338.872,72,308z M64,403.16C57.12,389.8,46.2,378.88,32.84,372c13.36-6.88,24.28-17.8,31.16-31.16
			c6.88,13.36,17.8,24.28,31.16,31.16C81.8,378.88,70.88,389.8,64,403.16z"/>
	</g>
</g>
        <g>
	<g>
		<path d="M440,100h-15.32c-15.152-37.688-52.24-64-94.264-64c-19.84,0-38.496,5.368-53.952,15.512
			c-17.112,11.264-39.808,11.264-56.928,0C204.088,41.368,185.432,36,165.584,36C109.568,36,64,81.568,64,137.584v21.096
			c0,57.36,16.4,113.168,47.416,161.416c16.688,25.96,28.944,54.304,36.432,84.24l8.704,34.832
			C159.608,451.44,170.576,460,183.216,460c13.72,0,25.16-9.848,27.184-23.416l17.944-119.664c1.48-9.8,9.744-16.92,19.656-16.92
			s18.176,7.12,19.648,16.92l17.944,119.664C287.624,450.152,299.064,460,312.784,460c12.64,0,23.608-8.56,26.664-20.832
			l8.712-34.832c7.488-29.944,19.752-58.288,36.44-84.24c18.232-28.368,31.568-60.048,39.368-92.928
			C423.96,227.448,424,227.72,424,228h16c0-30.872,25.128-56,56-56v-16C465.128,156,440,130.872,440,100z M371.136,311.44
			c-17.64,27.44-30.584,57.392-38.496,89.024l-8.72,34.832c-1.272,5.128-5.856,8.704-11.136,8.704c-5.736,0-10.512-4.12-11.36-9.792
			L283.48,314.544C280.824,296.84,265.896,284,248,284s-32.824,12.84-35.48,30.544l-17.944,119.664
			c-0.84,5.672-5.624,9.792-11.36,9.792c-5.28,0-9.864-3.576-11.152-8.704l-8.712-34.832c-7.904-31.64-20.856-61.592-38.496-89.024
			C95.512,265.784,80,212.96,80,158.68v-21.096C80,90.392,118.392,52,165.584,52c16.712,0,32.328,4.456,45.16,12.888
			C221.952,72.256,234.496,76,248,76c13.504,0,26.048-3.744,37.248-11.112C298.088,56.456,313.704,52,330.416,52
			c42.208,0,78.624,31.448,84.624,72.512l0.336,5.208C405.456,145.472,387.952,156,368,156v16c18.784,0,35.4,9.328,45.56,23.56
			C408.16,236.584,393.504,276.64,371.136,311.44z M432,195.16c-6.88-13.36-17.8-24.28-31.16-31.16
			c13.36-6.88,24.28-17.8,31.16-31.16c6.88,13.36,17.8,24.28,31.16,31.16C449.8,170.88,438.88,181.8,432,195.16z"/>
	</g>
</g>
        <g>
</g>
        <g>
</g>
        <g>
</g>
        <g>
</g>
        <g>
</g>
        <g>
</g>
        <g>
</g>
        <g>
</g>
        <g>
</g>
        <g>
</g>
        <g>
</g>
        <g>
</g>
        <g>
</g>
        <g>
</g>
        <g>
</g>
</symbol>
    <symbol  id="chair" xmlns="http://www.w3.org/2000/svg" xmlns:xlink="http://www.w3.org/1999/xlink" x="0px" y="0px"
         viewBox="0 0 511.998 511.998" style="enable-background:new 0 0 511.998 511.998;" xml:space="preserve">
<g>
	<g>
		<g>
			<path d="M423.376,348.859c-2.768-3.079-7.511-3.332-10.593-0.56c-3.079,2.77-3.331,7.513-0.56,10.593l38.9,43.253
				c7.332,8.132,1.54,21.179-9.415,21.179c-3.59,0-7.026-1.527-9.427-4.19L355.6,334.085c-3.232-3.585,4.594-2.532-133.82-1.593
				c-3.597,0.022-7.021-1.474-9.435-4.104L108.96,215.841c-2.292-2.494-3.476-5.733-3.331-9.118
				c0.475-11.189,14.335-16.403,22.014-8.045c104.555,113.82,98.195,108.382,102.854,108.382c0.104,0,128.293-0.886,128.4-0.886
				c3.622,0,7.074,1.525,9.477,4.19l27.663,30.681c2.773,3.077,7.517,3.321,10.594,0.548c3.076-2.773,3.321-7.518,0.548-10.594
				l-27.662-30.68c-5.206-5.776-12.624-9.134-20.471-9.143v-29.573c0-8.928-6.004-16.466-14.18-18.83v-3.246
				c0-11.348-9.231-20.579-20.579-20.579h-89.919c-11.349,0-20.581,9.231-20.581,20.579v2.465h-25.982l-49.11-53.463
				c-8.802-9.584-22.599-11.44-33.316-5.76l-6.835-7.44c6.456-10.23,5.653-24-3.051-33.472l-16.911-18.41
				c-10.264-11.175-27.786-12.071-39.117-1.659c-11.27,10.351-12.014,27.849-1.66,39.118l16.912,18.408
				c8.265,9,21.613,11.58,32.696,6.073l7.088,7.715c-6.042,10.129-5.141,23.569,3.416,32.886l103.386,112.544
				c5.091,5.543,12.261,8.769,19.78,8.94c9.964,21.053,30.389,35.589,53.441,38.21v46.721h-37.309
				c-11.349,0-20.581,9.231-20.581,20.579v2.496c-10.529,0.327-19,8.973-19,19.58v17.326c0,10.814,8.798,19.612,19.611,19.612
				h89.319c4.143,0,7.501-3.357,7.501-7.501s-3.357-7.501-7.501-7.501h-89.319c-2.542,0-4.609-2.068-4.609-4.61V475.06
				c0-2.542,2.067-4.609,4.609-4.609c7.973,0,123.073,0,129.857,0c2.542,0,4.609,2.067,4.609,4.609v17.326
				c0,2.542-2.067,4.61-4.609,4.61h-14.201c-4.143,0-7.501,3.357-7.501,7.501s3.357,7.501,7.501,7.501h14.201
				c10.814,0,19.611-8.798,19.611-19.612V475.06c0-10.608-8.472-19.254-19.001-19.58v-2.496c0-11.348-9.232-20.579-20.58-20.579
				h-37.607v-46.719c23.428-2.642,44.018-17.502,53.836-39.034l3.357-0.023l74.427,82.546c10.165,11.276,27.678,12.323,39.102,2.023
				c11.338-10.223,12.246-27.764,2.029-39.096L423.376,348.859z M228.785,239.528c0-3.075,2.503-5.577,5.58-5.577h89.919
				c3.075,0,5.578,2.502,5.578,5.577v2.465H228.785V239.528z M339.432,256.995c2.542,0,4.609,2.067,4.609,4.609v29.67
				l-110.272,0.762l-32.188-35.041C209.032,256.995,332.139,256.995,339.432,256.995z M75.105,173.271
				c-3.597,0-6.916-1.458-9.346-4.103l-16.913-18.409c-4.741-5.161-4.403-13.177,0.762-17.923c5.076-4.662,13.093-4.493,17.921,0.76
				l16.912,18.411C91.852,160.076,86.178,173.271,75.105,173.271z M327.127,447.408c3.076,0,5.578,2.502,5.578,5.578v2.465H231.631
				v-2.465c0-3.075,2.503-5.578,5.579-5.578H327.127z M238.184,347.379l88.082-0.607C305.868,378.84,259.169,379.29,238.184,347.379
				z"/>
            <path d="M462.476,10.33h-17.57c-4.143,0-7.501,3.357-7.501,7.501s3.357,7.501,7.501,7.501h17.57c2.217,0,4.021,1.804,4.021,4.021
				c0,2.218-1.804,4.022-4.021,4.022H339.929c0.369-2.698,0.346-5.625,0-8.044h79.309c4.142,0,7.501-3.357,7.501-7.501
				s-3.358-7.501-7.501-7.501h-86.055c-15.364-18.023-44.618-11.36-50.716,11.443c-15.587-11.972-37.602-11.149-52.197,2.365
				l-3.453,3.196c-7.922,7.348-8.395,19.775-1.053,27.702l55.771,60.231c7.276,7.858,19.693,8.497,27.712,1.065l3.44-3.184
				c15.695-14.531,17.309-38.569,4.077-55.03c6.519-1.342,12.252-4.856,16.419-9.743h129.292c10.489,0,19.023-8.534,19.023-19.024
				C481.497,18.862,472.964,10.33,462.476,10.33z M302.496,102.141c-3.612,3.343-4.353,4.412-6.569,4.412
				c-2.882,0,0.693,2.927-59.156-61.709c-1.726-1.863-1.614-4.784,0.242-6.507c3.765-3.485,9.611-9.98,20.76-9.98
				c7.186,0,13.831,2.901,18.712,8.173l27.397,29.587C313.453,76.457,312.836,92.568,302.496,102.141z M323.4,36.303
				c-7.179,12.922-26.928,7.814-26.928-6.95c0-7.923,6.444-14.367,14.364-14.367C321.625,14.986,328.734,26.61,323.4,36.303z"/>
            <path d="M260.745,190.316l26.187-54.653c1.79-3.736,0.213-8.216-3.522-10.006c-3.737-1.79-8.216-0.213-10.006,3.522
				l-26.186,54.653c-1.79,3.736-0.213,8.216,3.522,10.006C254.481,195.631,258.957,194.048,260.745,190.316z"/>
            <path d="M157.772,92.03l55.327-24.729c3.781-1.69,5.477-6.127,3.787-9.909c-1.689-3.78-6.126-5.474-9.909-3.787l-55.327,24.729
				c-3.781,1.69-5.477,6.127-3.787,9.909C149.549,92.014,153.975,93.723,157.772,92.03z"/>
		</g>
	</g>
</g>
        <g>
</g>
        <g>
</g>
        <g>
</g>
        <g>
</g>
        <g>
</g>
        <g>
</g>
        <g>
</g>
        <g>
</g>
        <g>
</g>
        <g>
</g>
        <g>
</g>
        <g>
</g>
        <g>
</g>
        <g>
</g>
        <g>
</g>
</symbol>
    <symbol  id="diplom" viewBox="0 0 480.03418 480"  xmlns="http://www.w3.org/2000/svg"><path d="m402.253906 372.164062-156.960937-51.535156c.839843-10.753906-3.851563-21.199218-12.449219-27.714844-8.59375-6.515624-19.917969-8.207031-30.046875-4.492187l-109.597656-94.703125c-1.804688-1.5625-4.210938-2.234375-6.5625-1.839844-2.351563.394532-4.40625 1.820313-5.597657 3.886719l-12.320312 21.398437c-21.941406-8.199218-46.59375.664063-58.289062 20.960938l-4 6.921875c-6.398438 11.082031-8.105469 24.265625-4.742188 36.617187 3.367188 12.347657 11.523438 22.84375 22.664062 29.148438l122.140626 62.609375c-2.242188 9.410156-.113282 19.328125 5.792968 26.992187l-25.191406 43.632813c-1.617188 2.800781-1.390625 6.300781.582031 8.871094 1.96875 2.566406 5.292969 3.695312 8.417969 2.855469l25.0625-6.71875 6.714844 25.0625c.835937 3.121093 3.46875 5.429687 6.671875 5.855468.347656.046875.695312.070313 1.046875.074219 2.859375 0 5.503906-1.523437 6.9375-4l34.496094-59.753906 84.101562 54.328125c11.03125 6.371094 24.144531 8.097656 36.449219 4.796875 12.304687-3.300781 22.792969-11.359375 29.152343-22.398438l4-6.917969 36-62.359374c1.203126-2.089844 1.402344-4.605469.542969-6.859376-.863281-2.25-2.695312-3.992187-4.984375-4.742187zm-180.800781-67.613281c7.648437 4.417969 10.269531 14.203125 5.847656 21.855469l-36 62.398438c-4.445312 7.589843-14.183593 10.164062-21.800781 5.765624-7.617188-4.398437-10.257812-14.121093-5.910156-21.765624l36-62.351563c2.113281-3.695313 5.613281-6.398437 9.726562-7.503906 4.109375-1.109375 8.492188-.53125 12.175782 1.601562zm-131.359375-92.402343 80.113281 69.25-87.480469-56.496094zm-73.007812 65.183593c-2.214844-8.199219-1.0625-16.941406 3.199218-24.285156l4-6.921875c8.757813-15.175781 28.085938-20.488281 43.367188-11.917969l114.738281 74.09375-29.183594 50.558594-121.21875-62.101563c-7.363281-4.222656-12.730469-11.21875-14.902343-19.425781zm161.230468 173.984375-3.773437-14.128906c-1.144531-4.265625-5.53125-6.800781-9.800781-5.652344l-14.136719 3.78125 14.480469-25.070312c11.394531 4.816406 24.550781 2.59375 33.726562-5.703125l4.746094 3.054687zm131.152344 5.65625-101.261719-65.414062 29.992188-51.945313 106.925781 54.832031c15.304688 8.835938 20.550781 28.40625 11.714844 43.710938l-4 6.921875c-8.765625 15.164063-28.09375 20.46875-43.371094 11.894531zm65.136719-49.597656c-3.628907-11.421875-11.414063-21.058594-21.816407-27.007812l-41.296874-21.121094 76.417968 25.085937zm0 0"/><path d="m469.671875 88.046875 9.925781-30.671875c1.210938-3.75-.484375-7.824219-4-9.601562l-28.679687-14.65625-14.664063-28.710938c-1.777344-3.515625-5.851562-5.214844-9.601562-4l-30.664063 9.960938-30.679687-9.929688c-3.746094-1.210938-7.820313.484375-9.597656 4l-14.648438 28.679688-28.710938 14.664062c-.128906.070312-.21875.191406-.34375.265625h-140.019531c-22.078125.023437-39.972656 17.917969-40 40v110c0 4.417969 3.582031 8 8 8 4.421875 0 8-3.582031 8-8v-110c0-13.257813 10.746094-24 24-24h138.554688l7.765625 24-9.925782 30.671875c-1.214843 3.746094.484376 7.820312 4 9.597656l28.710938 14.664063 14.664062 28.710937c1.777344 3.515625 5.851563 5.214844 9.601563 4l30.628906-9.964844 8 2.589844v175.730469c0 4.417969 3.582031 8 8 8 4.421875 0 8-3.582031 8-8v-170.554687l6.683594 2.160156c3.746094 1.214844 7.820313-.484375 9.597656-4l14.664063-28.710938 28.710937-14.664062c3.515625-1.777344 5.214844-5.851563 4-9.601563zm-16 2.460937 8.621094 26.648438-24.941407 12.746094c-1.5.765625-2.71875 1.988281-3.480468 3.488281l-12.761719 24.941406-26.65625-8.621093c-1.597656-.523438-3.320313-.523438-4.917969 0l-26.65625 8.621093-12.746094-24.941406c-.765624-1.503906-1.984374-2.722656-3.488281-3.488281l-24.941406-12.746094 8.621094-26.648438c.53125-1.597656.53125-3.328124 0-4.925781l-8.621094-26.648437 24.941406-12.746094c1.503907-.765625 2.722657-1.984375 3.488281-3.484375l12.746094-24.945313 26.65625 8.625c1.597656.519532 3.320313.519532 4.917969 0l26.65625-8.625 12.746094 24.945313c.761719 1.496094 1.980469 2.71875 3.480469 3.484375l24.941406 12.746094-8.625 26.648437c-.515625 1.601563-.515625 3.324219 0 4.925781zm0 0"/><path d="m391.988281 48.046875c-22.089843 0-40 17.90625-40 40 0 22.089844 17.910157 40 40 40 22.09375 0 40-17.910156 40-40-.023437-22.082031-17.917969-39.976563-40-40zm0 64c-13.253906 0-24-10.746094-24-24 0-13.257813 10.746094-24 24-24 13.257813 0 24 10.742187 24 24 0 13.253906-10.742187 24-24 24zm0 0"/><path d="m199.988281 208.046875h136c4.421875 0 8-3.582031 8-8s-3.578125-8-8-8h-136c-4.417969 0-8 3.582031-8 8s3.582031 8 8 8zm0 0"/><path d="m335.988281 232.046875h-112c-4.417969 0-8 3.582031-8 8s3.582031 8 8 8h112c4.421875 0 8-3.582031 8-8s-3.578125-8-8-8zm0 0"/><path d="m335.988281 272.046875h-56c-4.417969 0-8 3.582031-8 8s3.582031 8 8 8h56c4.421875 0 8-3.582031 8-8s-3.578125-8-8-8zm0 0"/><path d="m215.988281 128.046875h48c4.421875 0 8-3.582031 8-8s-3.578125-8-8-8h-48c-13.253906 0-24 10.742187-24 24 0 13.253906 10.746094 24 24 24h48c4.421875 0 8-3.582031 8-8s-3.578125-8-8-8h-48c-4.417969 0-8-3.582031-8-8s3.582031-8 8-8zm0 0"/></symbol>
    <symbol id="chat" viewBox="0 -20 512 512"  xmlns="http://www.w3.org/2000/svg"><path d="m256 0c-135.449219 0-256 92.375-256 217.988281 0 45.878907 16.289062 89.320313 47.234375 126.289063l-26.59375 102.683594c-3.945313 15.226562 10.523437 28.933593 25.566406 24.023437l135.671875-44.28125c23.96875 6.15625 48.871094 9.273437 74.121094 9.273437 135.535156 0 256-92.464843 256-217.988281 0-126.597656-121.757812-217.988281-256-217.988281zm0 395.976562c-23.703125 0-47.019531-3.160156-69.292969-9.386718-3.804687-1.0625-7.835937-.976563-11.59375.246094l-106.59375 34.792968 20.09375-77.578125c1.703125-6.578125-.050781-13.574219-4.660156-18.570312-28.753906-31.175781-43.953125-68.347657-43.953125-107.492188 0-98.144531 96.898438-177.992187 216-177.992187s216 79.847656 216 177.992187-96.898438 177.988281-216 177.988281zm25-177.992187c0 13.808594-11.191406 25-25 25s-25-11.191406-25-25c0-13.804687 11.191406-25 25-25s25 11.195313 25 25zm100 0c0 13.808594-11.191406 25-25 25s-25-11.191406-25-25c0-13.804687 11.191406-25 25-25s25 11.195313 25 25zm-200 0c0 13.808594-11.191406 25-25 25s-25-11.191406-25-25c0-13.804687 11.191406-25 25-25s25 11.195313 25 25zm0 0"/></symbol>
    <symbol  id="diamond" viewBox="0 -30 512 511"  xmlns="http://www.w3.org/2000/svg"><path d="m412.511719.5h-313.023438l-99.488281 146.878906 256 303.230469 256-303.230469zm-92.351563 160.882812-64.160156 213.800782-64.160156-213.804688h128.320312zm-120.976562-29.996093 56.816406-88.195313 56.816406 88.195313zm84.316406-100.890625h96.988281l-41.9375 85.449218zm-110.050781 85.453125-41.9375-85.453125h96.988281zm-25.832031 15.4375h-100.558594l58.308594-86.082031zm12.910156 29.996093 60.355468 201.136719-169.808593-201.136719zm190.945312 0h109.453125l-169.808593 201.136719zm12.910156-29.996093 42.25-86.082031 58.308594 86.082031zm0 0"/></symbol>
    <symbol  id="teeth" xmlns="http://www.w3.org/2000/svg" xmlns:xlink="http://www.w3.org/1999/xlink" x="0px" y="0px"
          viewBox="0 0 74.386 74.386" style="enable-background:new 0 0 74.386 74.386;"
         xml:space="preserve">
<g>
	<path d="M62.183,2.73c-7.956-4.588-18.364-3.256-24.995,2.979C30.58-0.52,20.182-1.864,12.197,2.73
		C5.333,6.708,1.081,14.274,1.081,22.459c0,2.375,0.354,4.706,0.996,6.663c0.46,2.202,1.665,4.062,2.825,5.86
		c0.964,1.475,1.949,2.999,2.505,4.695c0.857,2.632,0.374,11.562-0.14,16.871c0,7.879,5.867,14.84,14.938,17.707
		c0.15,0.043,0.318,0.077,0.477,0.088c1.723,0.3,3.278-1.057,3.278-2.764c0-0.301-0.047-0.585-0.129-0.854
		C25.964,56.717,31.88,46.992,37.2,46.992c5.381,0,11.366,9.943,11.366,24.153c-0.009,0.088-0.021,0.351-0.021,0.438
		c0,0.887,0.429,1.73,1.138,2.255c0.492,0.355,1.062,0.547,1.663,0.547c0.285,0,0.569-0.043,0.832-0.118
		c9.072-2.87,14.939-9.829,14.928-17.994c-0.501-5.012-0.982-13.942-0.118-16.568c0.556-1.702,1.541-3.231,2.504-4.712
		c1.171-1.797,2.375-3.653,2.758-5.582c0.711-2.213,1.056-4.55,1.056-6.947C73.305,14.263,69.056,6.708,62.183,2.73z M66.843,27.967
		c-0.252,1.177-1.083,2.465-2.056,3.962c-1.096,1.699-2.344,3.62-3.132,6.016c-1.48,4.523-0.36,16.512-0.142,18.591
		c0,4.378-2.833,8.395-7.484,10.878c-1.036-14.861-8.057-26.035-16.842-26.035c-8.742,0-15.734,11.032-16.81,26.053
		c-4.662-2.479-7.518-6.463-7.538-10.622c0.242-2.363,1.368-14.375-0.122-18.897c-0.778-2.379-2.018-4.303-3.115-5.989
		c-0.966-1.491-1.8-2.78-2.117-4.244C6.942,26,6.665,24.235,6.665,22.443c0-6.196,3.196-11.901,8.33-14.878
		c2.357-1.363,5.015-2.08,7.683-2.08c4.774,0,9.245,2.219,12.298,6.079c0.535,0.674,1.334,1.067,2.202,1.067
		c0.852,0,1.663-0.393,2.202-1.061c4.79-6.033,13.434-7.781,19.989-4.005c5.144,2.977,8.328,8.673,8.328,14.873
		C67.702,24.273,67.439,26.038,66.843,27.967z M25.488,11.106c0,1.548-1.256,2.801-2.802,2.801c-1.212,0-2.382,0.32-3.479,0.955
		c-2.544,1.472-4.118,4.385-4.118,7.598c0,0.919,0.133,1.833,0.413,2.717c0.033,0.112,0.191,0.61,0.212,0.722
		c0.028,0.069,0.556,0.865,0.941,1.464c1.256,1.933,2.937,4.545,4.058,7.945c0.483,1.472-0.325,3.053-1.795,3.535
		c-0.283,0.096-0.583,0.141-0.862,0.141c-1.176,0-2.272-0.751-2.673-1.928c-0.878-2.711-2.218-4.785-3.4-6.612
		c-0.611-0.952-1.401-2.23-1.531-2.561c-0.073-0.178-0.117-0.359-0.155-0.546c-0.578-1.919-0.808-3.394-0.808-4.876
		c0-5.201,2.659-9.97,6.92-12.452c1.978-1.129,4.085-1.71,6.287-1.71C24.239,8.303,25.488,9.554,25.488,11.106z"/>
</g>

</symbol>
    <symbol  id="implant" xmlns="http://www.w3.org/2000/svg" xmlns:xlink="http://www.w3.org/1999/xlink" x="0px" y="0px"
         viewBox="0 0 512 512" style="enable-background:new 0 0 512 512;" xml:space="preserve">


		<path d="M441.872,21.175C419.517,3.07,390.558-3.883,362.421,2.096l-29.034,6.17c-51.351,10.913-103.421,10.913-154.772,0
			l-29.034-6.17c-28.133-5.98-57.097,0.974-79.451,19.078C47.773,39.28,34.952,66.162,34.953,94.93
			c0.004,79.88,0.009,123.108,0.012,146.537c0.004,23.558,17.663,43.298,41.075,45.917l88.98,9.955
			c10.587,1.184,21.201,2.149,31.831,2.918v179.735c0,6.204,3.818,11.768,9.607,13.997l44.149,17.008
			c1.735,0.669,3.564,1.003,5.393,1.003c1.828,0,3.657-0.334,5.393-1.003l44.149-17.008c5.789-2.229,9.607-7.793,9.607-13.997
			V300.256c10.63-0.769,21.244-1.734,31.831-2.918l88.98-9.955c23.412-2.619,41.072-22.358,41.076-45.917
			c0.003-23.428,0.008-66.656,0.012-146.537C477.05,66.162,464.227,39.28,441.872,21.175z M285.149,317.82l-58.298,33.229v-49.183
			c9.712,0.345,19.43,0.538,29.148,0.538c9.719,0,19.437-0.192,29.148-0.538v15.953H285.149z M285.149,352.351v36.157
			l-58.298,33.229V385.58L285.149,352.351z M285.15,469.698l-29.149,11.228l-29.148-11.229v-13.427l58.298-33.229V469.698z
			 M447.038,241.462c-0.004,8.263-6.198,15.188-14.412,16.107l-88.98,9.955c-58.157,6.508-117.133,6.508-175.289,0l-88.981-9.955
			c-8.213-0.918-14.407-7.843-14.409-16.106c-0.001-7.933-0.002-18.147-0.003-31.276c62.936,8.738,126.242,13.114,189.552,13.114
			c64.307,0,128.617-4.514,192.527-13.53C447.04,223.103,447.039,233.444,447.038,241.462z M447.042,179.462
			c-126.804,18.293-255.242,18.437-382.084,0.427c-0.002-22.287-0.004-50.139-0.005-84.959c-0.001-19.674,8.767-38.06,24.055-50.441
			c11.696-9.472,26.033-14.48,40.743-14.48c4.517,0,9.071,0.473,13.592,1.434l29.034,6.17c55.487,11.792,111.758,11.792,167.244,0
			l29.034-6.17c19.243-4.088,39.048,0.666,54.335,13.047c15.288,12.381,24.057,30.766,24.056,50.44
			C447.045,129.531,447.044,157.244,447.042,179.462z"/>


</symbol>
    <symbol  id="device" xmlns="http://www.w3.org/2000/svg" xmlns:xlink="http://www.w3.org/1999/xlink" x="0px" y="0px"
         width="100%" height="100%" viewBox="0 0 409.562 409.562" style="enable-background:new 0 0 409.562 409.562;"
         xml:space="preserve">
<g>
	<path d="M379.377,58.308c-21.385-32.213-48.703-49.953-76.922-49.953c-28.221,0-55.539,17.74-76.922,49.953
		c-8.621,12.986-18.729,42.498-20.754,42.498c-2.143,0-12.135-29.512-20.756-42.498C162.64,26.095,135.324,8.355,107.101,8.355
		c-28.221,0-55.539,17.74-76.92,49.953C11.283,86.777,0,122.683,0,154.355c0,29.104,9.68,48.021,29.596,57.834
		c18.354,9.041,42.924,9.055,70.787,8.996c4.443-0.008,9-0.008,13.438,0c2.193,0.006,4.367,0.01,6.52,0.01
		c25.158,0,47.359-0.678,64.266-9.008c8.635-4.252,17.281-17.982,20.172-17.982c2.859,0,11.539,13.73,20.172,17.984
		c18.35,9.041,42.926,9.055,70.787,8.996c4.443-0.008,8.998-0.008,13.438,0c2.193,0.006,4.367,0.01,6.52,0.01
		c25.156,0,47.357-0.678,64.268-9.008c19.918-9.813,29.6-28.73,29.6-57.832C409.559,122.683,398.275,86.777,379.377,58.308z
		 M120.34,202.339c-2.137,0-4.299-0.006-6.479-0.01c-2.232-0.004-4.486-0.01-6.76-0.01c-2.27,0-4.525,0.006-6.76,0.01
		c-2.18,0.004-4.342,0.01-6.477,0.01c-52.154,0-75.012-4.539-75.012-47.984c0-28.109,10.107-60.117,27.037-85.619
		C63.407,42.345,85.717,27.209,107.1,27.209c21.385,0,43.695,15.137,61.213,41.527c9.682,14.583,17.126,31.293,21.729,48.184
		c0.277,1.019,0.926,3.058-1.24,3.058h-30c0,0-2.392-0.201-2.392-3.534c0-1.292,0-5.171,0-5.171c0-7.273-5.916-13.188-13.188-13.188
		H82.925c-7.271,0-13.188,5.914-13.188,13.188v37.297c0,7.271,5.916,13.188,13.188,13.188h60.297
		c7.271,0,13.188-5.916,13.188-13.188c0,0,0-5.344,0-7.126c0-2.542,2.892-2.61,2.892-2.61h33.335c1.75,0,1.876,1.134,1.938,1.7
		c0.51,4.679,0.775,9.3,0.775,13.821C195.35,197.8,172.494,202.339,120.34,202.339z M315.693,202.339
		c-2.139,0-4.301-0.006-6.479-0.01c-2.232-0.004-4.486-0.01-6.758-0.01c-2.273,0-4.527,0.006-6.762,0.01
		c-2.182,0.004-4.342,0.01-6.479,0.01c-52.154,0-75.01-4.539-75.01-47.984c0-4.682,0.283-9.471,0.83-14.321
		c0.045-0.4,0.268-1.201,1.518-1.201h33.082c0,0,3.508,0.277,3.508,3.11c0,1.657,0,6.626,0,6.626
		c0,7.271,5.916,13.188,13.189,13.188h60.299c7.27,0,13.186-5.916,13.186-13.188v-37.297c0-7.273-5.914-13.188-13.186-13.188
		h-60.299c-7.271,0-13.189,5.914-13.189,13.188c0,0,0,4.378,0,5.838c0,2.833-2.84,2.867-2.84,2.867h-29.918
		c-1.375,0-1.361-1.23-1.199-1.846c4.574-17.303,12.145-34.464,22.057-49.396c17.518-26.391,39.828-41.527,61.213-41.527
		c21.383,0,43.691,15.137,61.211,41.527c16.93,25.502,27.037,57.51,27.037,85.619C390.703,197.8,367.846,202.339,315.693,202.339z"
    />
    <path d="M340.207,240.599c-14.529-7.158-33.621-7.176-55.307-7.131c-3.406,0.008-6.902,0.008-10.305,0
		c-21.654-0.047-40.771-0.027-55.304,7.133c-5.969,2.941-12.155,11.848-14.514,11.848c-2.393,0-8.545-8.908-14.514-11.85
		c-14.529-7.158-33.625-7.178-55.305-7.131c-3.41,0.008-6.904,0.008-10.307,0c-21.654-0.047-40.771-0.027-55.303,7.133
		c-16.109,7.938-23.941,23.1-23.941,46.354c0,24.724,8.797,52.734,23.531,74.933c16.832,25.356,38.447,39.319,60.865,39.319
		c22.42,0,44.037-13.963,60.869-39.319c5.619-8.468,11.711-27.438,14.102-27.438c2.109,0,8.484,18.971,14.105,27.438
		c16.832,25.356,38.447,39.319,60.865,39.319s44.033-13.963,60.867-39.319c14.732-22.197,23.529-50.209,23.529-74.933
		C364.146,263.698,356.316,248.536,340.207,240.599z M193.012,296.675h-20.375c0,0-2.924,0.227-2.924-2.648c0-0.539,0-2.157,0-2.157
		c0-6.715-5.463-12.18-12.18-12.18h-46.281c-6.715,0-12.18,5.465-12.18,12.18v28.628c0,6.717,5.465,12.18,12.18,12.18h46.281
		c6.717,0,12.18-5.463,12.18-12.18c0,0,0-2.041,0-2.721c0-2.167,2.549-2.245,2.549-2.245h17.375c1.5,0,1.248,1.093,1.089,1.64
		c-9.867,33.674-34.263,65.182-60.919,65.182c-34.682,0-65.541-53.346-65.541-95.396c0-31.508,16.027-34.641,55.379-34.641
		c1.641,0,3.297,0.004,4.969,0.008c3.432,0.008,6.953,0.008,10.387,0c1.674-0.004,3.33-0.008,4.969-0.008
		c39.355,0,55.383,3.133,55.383,34.641c0,2.291-0.093,4.614-0.272,6.961C195.009,294.833,195.137,296.675,193.012,296.675z
		 M279.748,382.353c-26.711,0-51.152-31.643-60.979-65.396c-0.139-0.474-0.215-1.424,1.201-1.424h17.584
		c0,0,2.289-0.505,2.289,1.995c0,0.743,0,2.97,0,2.97c0,6.717,5.465,12.18,12.18,12.18h46.281c6.715,0,12.18-5.463,12.18-12.18
		v-28.627c0-6.715-5.465-12.18-12.18-12.18h-46.281c-6.715,0-12.18,5.465-12.18,12.18c0,0,0,1.68,0,2.24
		c0,2.333-2.539,2.564-2.539,2.564h-20.418c-2.375,0-2.301-1.442-2.358-2.16c-0.211-2.551-0.32-5.075-0.32-7.56
		c0-31.508,16.025-34.641,55.382-34.641c1.639,0,3.295,0.004,4.967,0.008c3.432,0.008,6.953,0.008,10.387,0
		c1.672-0.004,3.33-0.008,4.969-0.008c39.354,0,55.383,3.133,55.383,34.641C345.293,329.007,314.432,382.353,279.748,382.353z"/>
</g>

</symbol>
    <symbol id="update" viewBox="0 0 512 512.00035"  xmlns="http://www.w3.org/2000/svg"><path d="m510.0625 125.980469c-9.570312-61.367188-59.464844-112.121094-121.332031-123.429688-49.445313-9.035156-97.898438 6.234375-132.789063 41.097657-34.890625-34.863282-83.351562-50.132813-132.789062-41.097657-61.867188 11.308594-111.761719 62.0625-121.332032 123.429688-8.902343 57.082031 15.484376 111.332031 59.1875 144.019531 1.523438 94.066406 30.296876 168.875 47.632813 205.628906 10.421875 22.09375 33.0625 36.371094 57.683594 36.371094 40.085937 0 70.585937-37.648438 62.632812-77.402344.03125-3.039062-20.636719-66.988281 26.984375-127.078125 47.421875 59.839844 26.957032 124.464844 26.984375 127.078125-7.957031 39.773438 22.570313 77.402344 62.632813 77.402344h.378906c24.363281 0 46.183594-13.371094 56.945312-34.894531 30.835938-61.675781 46.972657-131.316407 48.003907-207.109375 43.710937-32.703125 68.074219-86.957032 59.175781-144.015625zm-82.46875 123.761719-6.652344 4.457031v8.007812c0 74.117188-15.105468 141.90625-44.890625 201.480469-5.644531 11.296875-17.1875 18.3125-30.113281 18.3125h-.378906c-21.105469 0-37.460938-20.289062-33.214844-41.519531.402344-4.515625 12.542969-43.273438-2.398438-93.121094-8.28125-27.621094-23.285156-52.851563-43.398437-72.964844l-10.605469-10.605469-10.605468 10.605469c-20.109376 20.113281-35.117188 45.34375-43.394532 72.964844-15.003906 50.054687-2.832031 88.285156-2.398437 93.121094 4.230469 21.160156-12.03125 41.519531-33.21875 41.519531-13.265625 0-24.96875-7.34375-30.546875-19.167969-16.746094-35.496093-44.835938-108.753906-44.835938-200.625v-8.007812l-6.652344-4.457031c-39.878906-26.710938-60.121093-72.363282-52.828124-119.140626 7.636718-48.96875 47.558593-89.488281 97.082031-98.539062 44.21875-8.082031 87.464843 8.148438 115.6875 43.417969l11.710937 14.632812 11.710938-14.632812c28.222656-35.269531 71.46875-51.5 115.6875-43.417969 49.523437 9.050781 89.445312 49.570312 97.082031 98.542969 7.292969 46.773437-12.949219 92.425781-52.828125 119.136719zm0 0"/><path d="m150.941406 90.003906c-16.542968 0-30 13.457032-30 30 0 16.542969 13.457032 30 30 30 16.542969 0 30-13.457031 30-30 0-16.542968-13.457031-30-30-30zm0 0"/><path d="m150.941406 240.003906c-16.542968 0-30 13.457032-30 30 0 16.539063 13.457032 30 30 30 16.542969 0 30-13.460937 30-30 0-16.542968-13.457031-30-30-30zm0 0"/><path d="m90.914062 135.003906c0 8.285156-6.714843 15-15 15-8.285156 0-15-6.714844-15-15s6.714844-15 15-15c8.285157 0 15 6.714844 15 15zm0 0"/><path d="m180.914062 195.003906c0 8.285156-6.714843 15-15 15-8.285156 0-15-6.714844-15-15s6.714844-15 15-15c8.285157 0 15 6.714844 15 15zm0 0"/></symbol>
    <symbol  id="implant2" viewBox="-81 0 512 512"  xmlns="http://www.w3.org/2000/svg"><path d="m281.363281 0h-26.667969c-33.585937 0-63.144531 17.5625-79.972656 43.988281-16.828125-26.425781-46.386718-43.988281-79.96875-43.988281h-26.671875c-37.539062 0-68.082031 30.542969-68.082031 68.082031v73.082031c0 26.394532 11.886719 50.941407 32.617188 67.34375 2.609374 2.0625 5.835937 3.183594 9.164062 3.183594h22.332031l6.371094 32.390625c-16.742187 6.332031-28.683594 22.523438-28.683594 41.457031 0 24.429688 19.875 44.308594 44.308594 44.308594h1.25l6.152344 31.285156c-18.46875 5.339844-32.019531 22.390626-32.019531 42.558594 0 24.433594 19.875 44.308594 44.308593 44.308594h4.800781l5.554688 28.246094c4.078125 20.71875 22.359375 35.753906 43.476562 35.753906h30.179688c21.113281 0 39.398438-15.035156 43.476562-35.753906l5.554688-28.246094h4.800781c24.433594 0 44.308594-19.875 44.308594-44.308594 0-20.167968-13.546875-37.21875-32.019531-42.558594l6.152344-31.285156h1.253906c24.429687 0 44.304687-19.878906 44.304687-44.308594 0-18.933593-11.941406-35.125-28.683593-41.457031l6.371093-32.390625h22.332031c3.328126 0 6.558594-1.121094 9.164063-3.1875 20.730469-16.398437 32.617187-40.945312 32.617187-67.339844v-73.082031c0-37.539062-30.539062-68.082031-68.082031-68.082031zm-77.058593 470.542969c-1.359376 6.90625-7.453126 11.917969-14.492188 11.917969h-30.179688c-7.039062 0-13.132812-5.011719-14.492187-11.917969l-4.433594-22.542969h68.035157zm39.339843-52.082031h-137.84375c-8.144531 0-14.769531-6.625-14.769531-14.769532 0-8.144531 6.625-14.769531 14.769531-14.769531h137.84375c8.144531 0 14.769531 6.625 14.769531 14.769531 0 8.144532-6.625 14.769532-14.769531 14.769532zm-17.472656-59.078126h-102.898437l-5.8125-29.535156h114.523437zm37.167969-59.074218h-177.230469c-8.144531 0-14.769531-6.625-14.769531-14.769532 0-8.144531 6.625-14.769531 14.769531-14.769531h177.230469c8.140625 0 14.769531 6.625 14.769531 14.769531 0 8.144532-6.628906 14.769532-14.769531 14.769532zm-13.925782-59.078125h-149.382812l-5.8125-29.539063h161.007812zm70.496094-100.066407c0 15.675782-6.402344 30.363282-17.714844 40.988282h-254.945312c-11.3125-10.625-17.710938-25.3125-17.710938-40.988282v-73.082031c0-21.253906 17.289063-38.542969 38.542969-38.542969h26.667969c35.953125 0 65.203125 29.25 65.203125 65.199219 0 8.15625 6.613281 14.769531 14.769531 14.769531s14.769532-6.613281 14.769532-14.769531c0-35.949219 29.25-65.199219 65.203124-65.199219h26.667969c21.253907 0 38.542969 17.289063 38.542969 38.542969v73.082031zm0 0"/></symbol>
    <symbol  id="update2" xmlns="http://www.w3.org/2000/svg" xmlns:xlink="http://www.w3.org/1999/xlink" x="0px" y="0px"
         width="100%" height="100%" viewBox="0 0 100.614 100.614" style="enable-background:new 0 0 100.614 100.614;"
         xml:space="preserve">
<g>
	<path d="M38.446,33.585c0,1.546-1.258,2.802-2.801,2.802c-1.214,0-2.386,0.331-3.471,0.962c-2.557,1.475-4.137,4.389-4.137,7.593
		c0,0.914,0.14,1.827,0.421,2.711c0.033,0.096,0.183,0.583,0.202,0.689c0.044,0.102,0.564,0.887,0.952,1.491
		c1.256,1.954,2.93,4.558,4.049,7.962c0.485,1.477-0.316,3.053-1.787,3.534c-0.29,0.099-0.582,0.137-0.866,0.137
		c-1.176,0-2.276-0.756-2.668-1.938c-0.892-2.708-2.225-4.787-3.406-6.631c-0.604-0.937-1.389-2.217-1.524-2.549
		c-0.068-0.157-0.202-0.745-0.236-0.915c-0.505-1.527-0.735-3.007-0.735-4.503c0-5.218,2.656-9.976,6.934-12.452
		c1.954-1.135,4.069-1.718,6.273-1.718C37.188,30.784,38.446,32.04,38.446,33.585z M86.1,50.442v41.767
		c0,4.631-3.781,8.405-8.405,8.405c-3.737,0-6.878-2.462-7.973-5.843c-1.434,0.794-2.966,1.454-4.578,1.971
		c-0.275,0.086-0.565,0.13-0.839,0.13c-0.585,0-1.172-0.187-1.663-0.554c-0.71-0.529-1.139-1.367-1.139-2.248
		c0.022-14.642-5.963-24.597-11.344-24.597c-5.379,0-11.37,9.947-11.37,24.225c0,0.892-0.413,1.909-1.137,2.451
		c-0.717,0.524-1.636,0.849-2.489,0.58c-9.065-2.862-14.934-9.812-14.934-17.707c0.529-5.286,1.011-14.228,0.143-16.87
		c-0.556-1.697-1.543-3.218-2.5-4.695c-1.165-1.789-2.363-3.65-2.829-5.855c-0.638-1.98-1.004-4.312-1.004-6.659
		c0-8.187,4.266-15.757,11.131-19.729c7.993-4.599,18.377-3.261,24.989,2.968c5.4-5.081,13.286-6.851,20.345-4.85l-3.901-7.298
		c-0.646-1.188-0.343-2.654,0.7-3.502L82.014,0.625c1.201-0.979,2.965-0.782,3.938,0.416c0.975,1.204,0.788,2.958-0.416,3.94
		L72.633,15.423l7.541,14.072c0.219,0.397,0.346,0.856,0.346,1.316V41.9c0,0.219-0.084,0.405-0.127,0.599
		C83.687,43.643,86.1,46.748,86.1,50.442z M66.985,89.895c0.844-0.448,1.555-1.033,2.301-1.581V50.442
		c0-3.694,2.405-6.81,5.724-7.938c-0.051-0.194-0.121-0.379-0.121-0.599v-9.924c-0.812-0.711-1.638-1.379-2.567-1.921
		c-6.57-3.778-15.21-2.019-19.989,4.011c-0.531,0.667-1.337,1.054-2.194,1.054c-0.859,0-1.671-0.392-2.202-1.054
		c-4.774-6.041-13.405-7.789-19.981-4.011c-5.139,2.98-8.335,8.695-8.335,14.882c0,1.775,0.276,3.54,0.812,5.239
		c0.327,1.458,1.156,2.745,2.118,4.239c1.095,1.695,2.337,3.615,3.128,5.985c1.485,4.541,0.357,16.536,0.117,18.9
		c0.012,4.158,2.876,8.143,7.539,10.627c1.075-15.016,8.068-26.053,16.809-26.053C58.92,63.876,65.946,75.032,66.985,89.895z
		 M80.496,50.442c0-1.543-1.265-2.804-2.802-2.804c-1.549,0-2.802,1.261-2.802,2.804v41.767c0,1.532,1.253,2.802,2.802,2.802
		c1.537,0,2.802-1.27,2.802-2.802V50.442z"/>
</g>

</symbol>
    <symbol  id="toothbrush" viewBox="-61 0 512 512"  xmlns="http://www.w3.org/2000/svg"><path d="m120 362c25.652344 0 45-32.671875 45-76 0-18.308594-3.683594-35.761719-10.371094-49.136719-8.339844-16.675781-20.636718-25.863281-34.628906-25.863281s-26.289062 9.1875-34.628906 25.863281c-6.6875 13.375-10.371094 30.828125-10.371094 49.136719 0 43.328125 19.347656 76 45 76zm-7.796875-111.71875c3.832031-7.667969 7.277344-9.28125 7.796875-9.28125s3.964844 1.613281 7.796875 9.28125c4.578125 9.15625 7.203125 22.175781 7.203125 35.71875 0 30.066406-11.527344 45.460938-14.972656 46.003906-3.5-.542968-15.027344-15.9375-15.027344-46.003906 0-13.542969 2.625-26.5625 7.203125-35.71875zm0 0"/><path d="m60 0v71.460938l-29.652344 59.304687-30.347656 305.492187v75.742188h240v-75.742188l-30.347656-305.492187-29.652344-59.304687v-71.460938zm121.414062 150 27.023438 272h-176.875l27.023438-272zm-112.144531-30 15-30h71.460938l15 30zm80.730469-90v30h-60v-30zm-120 452v-30h180v30zm0 0"/><path d="m270 512h90v-224.167969l30-121v-166.832031c-21.886719 0-130.457031 0-150 0v180h55.828125l-25.828125 104.167969zm30-30v-30h30v30zm0-60v-30h30v30zm30-255.167969v-136.832031h30v133.167969l-30 121v77.832031h-30v-74.167969zm-60-136.832031h30v120h-30zm0 0"/></symbol>
    <symbol enable-background="new 0 0 24 24"  id="youtube"  viewBox="0 0 24 24"  xml:space="preserve" xmlns="http://www.w3.org/2000/svg" xmlns:xlink="http://www.w3.org/1999/xlink"><g id="icon"><circle cx="12" cy="12" fill="#D82B2B" r="11"/><path d="M11.0559,15.7909c-2.1603,-0.0379,-2.8982,-0.0719,-3.3517,-0.1609c-0.3068,-0.0591,-0.5735,-0.1904,-0.769,-0.3808c-0.1511,-0.1441,-0.2713,-0.364,-0.3645,-0.669c-0.08,-0.2541,-0.1111,-0.4656,-0.1555,-0.982c-0.068,-1.1656,-0.0842,-2.1186,0,-3.1834c0.0694,-0.588,0.1031,-1.2861,0.5644,-1.6933c0.2178,-0.1906,0.4712,-0.3133,0.7557,-0.364c0.4445,-0.0804,2.3382,-0.1439,4.2985,-0.1439c1.956,0,3.8539,0.0635,4.2988,0.1439c0.3555,0.0635,0.6888,0.2539,0.8845,0.4994c0.4209,0.6305,0.4283,1.4145,0.471,2.0278c0.0177,0.2922,0.0177,1.9515,0,2.2437c-0.0665,0.9692,-0.12,1.3121,-0.2711,1.6677c-0.0934,0.2245,-0.1732,0.3429,-0.3113,0.4742c-0.2165,0.202,-0.4926,0.3364,-0.7913,0.3852C14.4451,15.7893,12.8576,15.8184,11.0559,15.7909L11.0559,15.7909zM13.9363,11.8964C12.8963,11.3671,11.9,10.8763,10.9,10.3683v3.0395c1,-0.5546,2.1829,-1.0626,3.0408,-1.5156L13.9363,11.8964L13.9363,11.8964z" fill="#FFFFFF"/><path d="M4.2218,19.7782C6.2124,21.7688,8.9624,23,12,23c6.0751,0,11,-4.9249,11,-11c0,-3.0376,-1.2312,-5.7876,-3.2218,-7.7782L4.2218,19.7782z" fill="#231F20" opacity="0.1"/></g></symbol>
    <symbol id="scop" xmlns="http://www.w3.org/2000/svg" xmlns:xlink="http://www.w3.org/1999/xlink" width="100%" height="100%" viewBox="0 0 16 16">
        <path  d="M5.7 15.2c0.3 0.3 1 0.8 1.8 0.8 2.7 0 3.3-2 3.4-3.6 0.2-2.3 0.8-2.2 1.1-2.2 0.7 0 0.9 0.4 0.9 1.1-0.6 0.4-1 1-1 1.7 0 1.1 0.9 2 2 2s2-0.9 2-2-0.9-2-2-2c-0.1 0-0.1 0-0.2 0-0.2-0.9-0.7-1.8-1.8-1.8-1.6 0-2 1.4-2.1 2.9-0.1 2.1-0.8 2.9-2.3 2.9-0.4 0-0.8-0.2-1-0.4-0.6-0.5-0.5-2.3-0.5-2.3 2 0 4-1.8 4.7-4.8l-0.2-0.1c0.3-1.2 0.5-2.6 0.5-3.6 0-1.1-0.3-1.9-1-2.5s-1.5-0.8-2.1-0.8c-0.2-0.3-0.5-0.5-0.9-0.5-0.5 0-1 0.4-1 1s0.4 1 1 1c0.4 0 0.7-0.2 0.8-0.5 0.5 0 1 0.2 1.5 0.6s0.7 0.9 0.7 1.7c0 0.9-0.2 2.2-0.5 3.5l-0.2-0.1c-0.3 1.1-1.3 3.6-3.3 3.6h-1c-2 0-3-2.5-3.3-3.6l-0.2 0.1c-0.3-1.3-0.5-2.6-0.5-3.5 0-0.8 0.2-1.3 0.7-1.7 0.4-0.4 1-0.5 1.5-0.6 0.1 0.3 0.4 0.5 0.8 0.5 0.6 0 1-0.4 1-1s-0.4-1-1-1c-0.4 0-0.7 0.2-0.9 0.5-0.6 0-1.4 0.2-2.1 0.8s-1 1.4-1 2.5c0 1 0.2 2.4 0.5 3.7l-0.2 0.1c0.7 2.9 2.7 4.7 4.7 4.7 0 0-0.1 2.2 0.7 2.9zM14 14c-0.6 0-1-0.4-1-1s0.4-1 1-1 1 0.4 1 1-0.5 1-1 1z"></path>
    </symbol>
    <symbol  id="profile" xmlns="http://www.w3.org/2000/svg" xmlns:xlink="http://www.w3.org/1999/xlink" x="0px" y="0px"
         viewBox="0 0 563.43 563.43" style="enable-background:new 0 0 563.43 563.43;" xml:space="preserve">
<path d="M280.79,314.559c83.266,0,150.803-67.538,150.803-150.803S364.055,13.415,280.79,13.415S129.987,80.953,129.987,163.756
	S197.524,314.559,280.79,314.559z M280.79,52.735c61.061,0,111.021,49.959,111.021,111.021S341.851,274.776,280.79,274.776
	s-111.021-49.959-111.021-111.021S219.728,52.735,280.79,52.735z"/>
        <path d="M19.891,550.015h523.648c11.102,0,19.891-8.789,19.891-19.891c0-104.082-84.653-189.198-189.198-189.198H189.198
	C85.116,340.926,0,425.579,0,530.124C0,541.226,8.789,550.015,19.891,550.015z M189.198,380.708h185.034
	c75.864,0,138.313,56.436,148.028,129.524H41.17C50.884,437.607,113.334,380.708,189.198,380.708z"/>

</symbol>
    <symbol id="help" viewBox="0 0 511 512"  xmlns="http://www.w3.org/2000/svg"><path d="m43.398438 447.878906 21.210937 21.210938c15.609375 15.609375 39.875 17.320312 57.410156 5.175781 40.914063 25.148437 87.691407 37.734375 134.476563 37.734375 46.78125 0 93.558594-12.585938 134.472656-37.734375 17.539062 12.148437 41.808594 10.425781 57.410156-5.175781l21.210938-21.210938c15.769531-15.769531 17.257812-40.046875 5.179687-57.417968 50.292969-81.824219 50.292969-187.109376 0-268.933594 12.078125-17.371094 10.589844-41.648438-5.179687-57.417969l-21.210938-21.207031c-15.59375-15.597656-39.882812-17.316406-57.410156-5.179688-81.828125-50.296875-187.121094-50.296875-268.949219 0-17.527343-12.136718-41.816406-10.417968-57.410156 5.179688l-21.210937 21.207031c-15.769532 15.769531-17.257813 40.046875-5.179688 57.417969-50.292969 81.824218-50.292969 187.113281 0 268.933594-12.078125 17.371093-10.585938 41.648437 5.179688 57.417968zm42.421874 0-21.210937-21.210937c-5.863281-5.859375-5.863281-15.34375 0-21.207031l84.839844-84.839844c5.847656-5.847656 15.359375-5.847656 21.207031 0l21.210938 21.210937c5.847656 5.847657 5.847656 15.363281 0 21.210938-28.152344 28.148437-61.003907 61-84.839844 84.835937-5.84375 5.847656-15.359375 5.847656-21.207032 0zm127.257813-256.511718c10.09375-10.097657 14.367187-23.835938 12.84375-37.023438 19.65625-5.617188 41.492187-5.617188 61.148437 0-1.523437 13.1875 2.75 26.929688 12.84375 37.023438l21.210938 21.210937c9.671875 9.671875 23.191406 14.441406 37.023438 12.84375 5.613281 19.65625 5.613281 41.492187 0 61.148437-13.191407-1.523437-26.929688 2.75-37.023438 12.84375l-21.210938 21.210938c-10.09375 10.09375-14.367187 23.832031-12.84375 37.023438-19.65625 5.613281-41.492187 5.613281-61.148437 0 1.523437-13.191407-2.75-26.929688-12.84375-37.023438l-21.210937-21.210938c-10.09375-10.09375-23.832032-14.367187-37.023438-12.84375-5.617188-19.65625-5.617188-41.492187 0-61.148437 13.808594 1.597656 27.332031-3.152344 37.023438-12.84375zm-68.507813 261.390624 67.875-67.875c14.128907 4.699219 29.085938 7.058594 44.050782 7.058594 14.960937 0 29.917968-2.359375 44.046875-7.058594l67.875 67.875c-68.917969 39.046876-154.925781 39.046876-223.847657 0zm303.808594-26.085937-21.207031 21.207031c-5.851563 5.847656-15.363281 5.847656-21.210937 0-12.875-12.875-77.777344-77.777344-84.839844-84.835937-5.847656-5.847657-5.847656-15.363281 0-21.210938l21.210937-21.210937c5.847657-5.847656 15.359375-5.847656 21.210938 0 7.078125 7.082031 71.984375 71.988281 84.835937 84.839844 5.863282 5.863281 5.863282 15.347656 0 21.210937zm4.878906-58.75-67.875-67.875c9.402344-28.261719 9.402344-59.839844 0-88.101563l67.875-67.875c39.046876 68.921876 39.046876 154.925782 0 223.851563zm-26.085937-303.8125 21.207031 21.210937c5.863282 5.859376 5.863282 15.34375 0 21.207032-98.578125 98.585937 5.511719-5.511719-84.835937 84.839844-5.851563 5.847656-15.363281 5.847656-21.210938 0l-21.210937-21.210938c-5.847656-5.847656-5.847656-15.363281 0-21.210938l84.839844-84.835937c5.847656-5.847656 15.359374-5.847656 21.210937 0zm-58.75-4.878906-67.875 67.875c-28.261719-9.402344-59.839844-9.402344-88.101563 0l-67.875-67.875c68.921876-39.046875 154.929688-39.046875 223.851563 0zm-303.8125 26.089843 21.210937-21.210937c5.847657-5.847656 15.359376-5.847656 21.207032 0 24.503906 24.503906 58.882812 58.878906 84.839844 84.839844 5.847656 5.847656 5.847656 15.363281 0 21.210937l-21.210938 21.207032c-5.84375 5.847656-15.359375 5.851562-21.207031 0-7.082031-7.078126-71.988281-71.988282-84.839844-84.835938-5.859375-5.863281-5.859375-15.347656 0-21.210938zm-4.878906 58.75 67.875 67.875c-9.398438 28.261719-9.398438 59.839844 0 88.097657l-67.875 67.875c-39.046875-68.921875-39.046875-154.925781 0-223.847657zm0 0"/></symbol>
    <symbol  id="cards" xmlns="http://www.w3.org/2000/svg" xmlns:xlink="http://www.w3.org/1999/xlink" x="0px" y="0px"
         viewBox="0 0 611.996 611.996" style="enable-background:new 0 0 611.996 611.996;" xml:space="preserve">

		<path d="M588.63,113.193L213.812,33.871c-15.858-3.355-31.576,6.876-34.931,22.734l-7.121,45.762l432.477,91.519l7.121-45.762
			C614.713,132.272,604.488,116.549,588.63,113.193z"/>
        <path d="M431.009,203.591c-4.378-15.766-20.854-25.085-36.615-20.714L323.24,202.63l-167.742-35.5l-18.448,87.165L21.786,286.287
			c-15.76,4.372-25.079,20.848-20.708,36.609l64.958,234.078c4.378,15.76,20.855,25.085,36.615,20.708l372.608-103.403
			c15.76-4.378,25.079-20.848,20.708-36.615l-11.15-40.184l41.789,8.835c15.858,3.361,31.576-6.87,34.931-22.728l26.439-124.937
			L437.45,226.797L431.009,203.591z M474.04,322.559l9.215-43.552c1.384-6.521,7.85-10.727,14.37-9.35l43.552,9.221
			c6.527,1.384,10.733,7.843,9.356,14.37l-9.215,43.552c-1.384,6.521-7.849,10.733-14.37,9.35l-43.552-9.215
			C476.863,335.546,472.656,329.08,474.04,322.559z M28.27,309.646l103.115-28.606l243.299-67.517l26.181-7.274
			c0.478-0.129,0.955-0.19,1.421-0.19c2.1,0,4.611,1.378,5.345,4.017l3.074,11.07l9.631,34.704L37.148,362.186l-12.705-45.768
			C23.647,313.546,25.399,310.442,28.27,309.646z M472.601,444.141c0.49,1.776-0.024,3.245-0.545,4.164
			c-0.514,0.918-1.506,2.119-3.282,2.608L96.173,554.316c-0.471,0.129-0.955,0.196-1.421,0.196c-2.1,0-4.611-1.384-5.345-4.023
			L51.519,413.955l383.188-106.342l23.371,84.208L472.601,444.141z"/>
        <path d="M156.379,453.484c-1.788-6.429-8.499-10.225-14.928-8.443l-43.515,12.08c-6.423,1.782-10.225,8.499-8.437,14.928
			l12.074,43.509c1.788,6.429,8.499,10.225,14.928,8.437l43.515-12.074c6.429-1.782,10.225-8.499,8.443-14.928L156.379,453.484z"/>


</symbol>
    <symbol  id="money" xmlns="http://www.w3.org/2000/svg" xmlns:xlink="http://www.w3.org/1999/xlink" x="0px" y="0px"
         viewBox="0 0 354.796 354.796" style="enable-background:new 0 0 354.796 354.796;" xml:space="preserve">

				<path d="M265.442,109.092c-10.602-4.25-13.665-6.82-13.665-11.461c0-3.714,2.813-8.053,10.744-8.053
					c7.015,0,12.395,2.766,12.443,2.79c0.566,0.302,1.201,0.463,1.83,0.463c1.535,0,2.893-0.929,3.456-2.367l1.927-4.926
					c0.671-1.795-0.347-3.359-1.645-3.92c-4.319-1.88-12.76-3.335-12.846-3.35c-0.136-0.024-0.609-0.125-0.609-0.678l-0.027-7.146
					c0-2.152-1.797-3.904-4.003-3.904h-3.457c-2.204,0-4,1.751-4,3.905l0.009,7.513c0,0.576-0.624,0.826-0.852,0.879
					c-10.655,2.538-17.314,10.343-17.314,20.188c0,12.273,10.145,17.819,21.099,21.982c8.757,3.438,12.329,6.924,12.329,12.037
					c0,5.564-5.059,9.45-12.307,9.45c-6.189,0-14.565-3.923-14.648-3.963c-0.536-0.254-1.104-0.382-1.688-0.382
					c-1.594,0-2.982,0.964-3.537,2.457l-1.84,4.982c-0.654,1.86,0.353,3.37,1.642,4.042c5.144,2.679,15.098,4.249,15.541,4.318
					c0.119,0.017,0.725,0.23,0.725,0.784v7.48c0,2.152,1.797,3.904,4.004,3.904h3.572c2.208,0,4.005-1.751,4.005-3.904v-7.872
					c0-0.736,0.543-0.801,0.655-0.828c11.351-2.55,18.343-10.855,18.343-21.283C285.325,121.518,279.377,114.597,265.442,109.092z"
                />
        <path d="M260.979,22.509c-51.816,0-93.818,42.005-93.818,93.818c0,51.814,42.002,93.82,93.818,93.82
					c51.814,0,93.817-42.006,93.817-93.82C354.796,64.514,312.793,22.509,260.979,22.509z M260.979,188.404
					c-39.808,0-72.076-32.271-72.076-72.076s32.268-72.075,72.076-72.075c39.806,0,72.073,32.27,72.073,72.075
					S300.785,188.404,260.979,188.404z"/>

        <path d="M335.733,255.61c-19.95,11.011-47.389,21.192-74.753,25.484c-24.346,3.818-70.148-5.39-70.148-16.265
					c0-4.121,40.17,10.154,64.469,3.671c18.633-4.971,15.988-22.401,5.853-24.7c-10.076-2.287-69.108-23.913-94.323-24.659
					c-11.878-0.351-41.203,4.131-55.393,6.442c-4.861,0.791-7.909,0.704-8.213,5.356c-1.412,21.62-4.195,65.832-5.712,88.926
					c-0.032,0.488,0.646,7.05,6.061,2.432c5.927-5.054,14.24-10.656,21.929-8.912c12.063,2.737,116.424,21.856,130.819,18.51
					c20.593-4.787,78.888-39.334,90.065-50.072C363.711,265.176,350.244,247.601,335.733,255.61z"/>
        <path d="M74.426,224.74l-54.672-2.694c-4.221-0.208-8.532,2.973-9.581,7.066l-9.941,90.255c-1.048,4.094,1.55,7.578,5.773,7.741
					l60.59-0.006c4.224,0.163,7.942-3.151,8.266-7.365l6.654-86.958C81.837,228.566,78.647,224.948,74.426,224.74z M42.24,315.145
					c-8.349,0-15.116-6.768-15.116-15.116c0-8.349,6.768-15.116,15.116-15.116s15.116,6.768,15.116,15.116
					C57.356,308.378,50.589,315.145,42.24,315.145z"/>

</symbol>
    <symbol id="doctor" viewBox="-16 0 512 512"  xmlns="http://www.w3.org/2000/svg"><path d="m255.996094 64.265625h-1.066406v-1.066406c0-8.285157-6.714844-15-15-15-8.285157 0-15 6.714843-15 15v1.066406h-1.066407c-8.28125 0-15 6.714844-15 15s6.71875 15 15 15h1.066407v1.066406c0 8.285157 6.714843 15 15 15 8.285156 0 15-6.714843 15-15v-1.066406h1.066406c8.285156 0 15-6.714844 15-15s-6.714844-15-15-15zm0 0"/><path d="m479.285156 492.875-19.761718-69.148438c-9.085938-31.8125-31.636719-57.761718-61.863282-71.195312l-94.53125-42.015625v-27.101563c29.097656-20.117187 48.203125-53.710937 48.203125-91.683593v-176.730469c0-8.285156-6.71875-15-15-15h-192.804687c-8.28125 0-15 6.714844-15 15v176.730469c0 37.972656 19.105468 71.566406 48.203125 91.683593v27.101563l-94.527344 42.015625c-30.230469 13.433594-52.78125 39.382812-61.867187 71.191406l-19.761719 69.152344c-2.640625 9.234375 4.121093 19.125 14.429687 19.125 6.527344 0 12.53125-4.292969 14.414063-10.882812l19.765625-69.152344c6.636718-23.242188 23.113281-42.203125 45.203125-52.019532l38.414062-17.078124c.042969.042968.078125.09375.121094.136718l96.402344 96.398438c2.929687 2.929687 6.765625 4.394531 10.605469 4.394531 3.839843 0 7.675781-1.464844 10.605468-4.394531l96.398438-96.398438c.042968-.042968.082031-.089844.121094-.136718l38.417968 17.078124c22.089844 9.816407 38.566406 28.773438 45.203125 52.019532l19.761719 69.152344c1.886719 6.585937 7.890625 10.882812 14.417969 10.882812 10.777343 0 16.949219-10.316406 14.429687-19.125zm-320.757812-462.875h162.804687v98.53125h-162.804687zm0 161.730469v-33.199219h162.804687v33.199219c0 44.882812-36.519531 81.398437-81.402343 81.398437-44.882813 0-81.402344-36.515625-81.402344-81.398437zm81.402344 235.851562-77.765626-77.761719 35.660157-15.851562c5.414062-2.40625 8.90625-7.777344 8.90625-13.707031v-22.183594c10.488281 3.28125 21.640625 5.050781 33.199219 5.050781 11.558593 0 22.710937-1.769531 33.199218-5.050781v22.183594c0 5.929687 3.492188 11.300781 8.910156 13.707031l35.65625 15.851562zm0 0"/><path d="m384.527344 449.863281h-48.195313c-8.285156 0-15 6.714844-15 15 0 8.285157 6.714844 15 15 15h48.195313c8.285156 0 15-6.714843 15-15 0-8.285156-6.714844-15-15-15zm0 0"/></symbol>
</svg>